<?xml version="1.0" encoding="UTF-8" standalone="no"?>
<svg
   id="Layer_2"
   data-name="Layer 2"
   viewBox="0 0 910.57147 945.63971"
   version="1.1"
   width="910.57147"
   height="945.63971"
   xmlns="http://www.w3.org/2000/svg"
   xmlns:svg="http://www.w3.org/2000/svg">
  <defs
     id="defs1">
    <style
       id="style1">
      .cls-1 {
        fill: #fa5c28;
      }

      .cls-2 {
        fill: #ffe600;
      }

      .cls-3 {
        fill: #fbf9f9;
      }

      .cls-4 {
        fill: #293af4;
      }
    </style>
  </defs>
  <g
     id="Layer_1-2"
     data-name="Layer 1"
     transform="translate(-91.513495,-68.326519)">
    <path
       class="cls-1"
       d="m 455.17,1013.63 c -84.78,2.3 -164.83,-7.58 -245.5,-18.03 -56.75,-7.35 -93.33,-34.36 -109.1,-89.44 -24.13,-84.27 -1.24,-170.24 83.13,-200.17 -48.06,-51.45 -48.98,-118.21 -8.84,-172.62 29.01,-39.33 74.07,-60.82 124.06,-70.71 -47.98,-65.45 1.26,-141.01 73.06,-182.33 l 44.93,-25.85 179.9,-62.96 c 59,-31.44 110.69,-65.13 151.52,-118.81 l 18.98,-4.3 c 5.41,-1.23 15.16,11.45 16.09,17.08 10.44,63.26 29.58,125.95 50.01,187 20.53,61.33 1.33,121.01 -18.53,180.09 54.61,10.47 103.24,45.59 114.04,99.97 9.08,45.7 -12.45,86.38 -40.66,124.11 40.24,11.29 78.53,23.61 96.93,62.45 30.65,64.68 19.32,146.77 -31.73,199.78 -22.05,22.89 -106.88,69.29 -135.47,69.42 l -199.58,0.91 -163.23,4.43 z"
       id="path1" />
    <path
       class="cls-3"
       d="m 559.79,825.39 c -21.36,4.1 -39.32,4.1 -58.8,0.16 C 369.64,820.31 245.7,765.07 151.39,670.66 268.42,555.55 413.6,504.43 576.07,515.95 c 74.53,5.29 143.71,25.08 208.87,61.48 45.66,25.5 86.92,54.09 122.65,93.58 l -37.78,33.51 C 782.4,777.48 675.16,820.4 559.79,825.39 Z M 544.9,822.02 C 617.96,815.41 676.83,757 684.22,685.11 693.99,590.05 614.06,510.89 520.33,517.52 c -43.61,3.08 -80.97,21.68 -108.61,54.37 -49.89,59.01 -48.96,143.72 3.5,200.38 33.37,36.04 77.2,54.5 129.69,49.75 z"
       id="path2" />
    <path
       class="cls-4"
       d="m 544.9,822.02 c -52.49,4.75 -96.32,-13.71 -129.69,-49.75 -52.45,-56.66 -53.38,-141.36 -3.5,-200.38 27.64,-32.7 65,-51.29 108.61,-54.37 93.73,-6.63 173.66,72.53 163.89,167.59 -7.39,71.89 -66.26,130.3 -139.32,136.91 z"
       id="path3" />
  </g>
</svg>
